<svg width="80" height="80" viewBox="0 0 80 80" fill="none" xmlns="http://www.w3.org/2000/svg">
<path d="M71.5556 27.6445C71.0222 21.7779 72 12.2667 65.3334 9.95563C63.9111 9.4223 62.3111 9.06674 60.7111 8.88896C55.5556 7.64452 50.4 7.64452 45.1556 7.55563C38.7556 7.55563 32.3556 7.11118 25.9556 6.57785C22.7556 6.31118 20.2667 6.57785 17.9556 7.55563C12.4445 8.80007 9.42224 14.1334 8.71113 20.0001C7.55558 29.0667 8.35558 38.8445 8.53335 48.0001C8.62224 55.0223 7.46669 65.5112 13.6889 70.4001C15.9111 72.089 18.9334 72.1779 21.5111 72.5334C26.3111 73.1556 31.2 73.5112 36.0889 73.6001C40.7111 73.689 45.2445 73.5112 49.8667 73.0667C54.4889 72.6223 59.1111 73.689 63.5556 72.0001C70.4889 69.4223 72.0889 64.9779 71.7333 57.7779C71.2 47.7334 72.4445 37.7779 71.5556 27.6445ZM18.4 67.6445C18.7556 67.7334 19.1111 67.8223 19.4667 67.8223C19.4667 67.8223 19.4667 67.9112 19.3778 67.9112C19.1111 67.8223 18.7556 67.7334 18.4 67.6445ZM14.1334 64.0001C14.4889 64.1779 14.9334 64.3556 15.3778 64.2667C15.2 64.6223 15.0222 64.889 14.9334 65.2445C14.5778 64.8001 14.3111 64.4445 14.1334 64.0001ZM56.9778 43.5556C56.8889 43.6445 56.8 43.7334 56.7111 43.8223H56.6222C56.7111 43.8223 56.8889 43.6445 56.9778 43.5556ZM49.1556 42.8445C49.4222 42.5779 49.6889 42.3112 50.0445 42.0445C49.7778 42.3112 49.5111 42.5779 49.1556 42.8445ZM41.4222 43.5556C41.0667 43.7334 40.7111 44.0001 40.4445 44.1779C40.9778 43.8223 41.5111 43.4667 42.1334 43.0223C41.8667 43.2001 41.6889 43.3779 41.4222 43.5556ZM61.7778 13.8667C61.8667 13.7779 61.8667 13.7779 61.7778 13.8667C61.8667 13.8667 61.8667 13.8667 61.7778 13.8667ZM26.8445 55.2001C27.3778 54.6667 27.8222 54.1334 28.3556 53.689C28.0889 54.0445 27.8222 54.3112 27.5556 54.6667C27.3778 54.7556 27.1111 55.0223 26.8445 55.2001ZM21.3334 47.9112V47.8223C21.6889 47.5556 22.1334 47.289 22.4889 47.0223C22.0445 47.289 21.6889 47.5556 21.3334 47.9112ZM12.2667 23.4667C12.5334 23.289 12.8889 23.0223 13.1556 22.8445C12.8889 23.1112 12.5334 23.4667 12.2667 23.7334C12.2667 23.6445 12.2667 23.5556 12.2667 23.4667ZM29.8667 58.1334C31.5556 56.7112 33.2445 55.3779 34.9334 54.0445C34.8445 50.4001 34.7556 46.7556 34.7556 43.1112C34.7556 42.489 34.7556 41.7779 34.7556 41.1556C32.3556 41.3334 29.8667 41.4223 27.4667 41.5112C25.4222 41.5112 25.2445 38.6667 26.8445 37.9556C26.8445 37.0667 27.3778 36.089 28.5334 36.089C29.2445 36.089 29.9556 36.089 30.7556 36.089C31.8222 35.2001 32.8889 34.3112 33.8667 33.4223C34.1334 33.1556 34.4 32.9779 34.6667 32.7112C34.6667 31.0223 34.8445 29.3334 35.0222 27.7334C36.1778 19.5556 46.3111 19.7334 52.4445 19.7334C53.6889 19.7334 54.3111 20.889 54.1334 21.8667C54.9334 22.9334 54.4889 24.889 52.8 24.8001C48.5334 24.6223 42.2222 24.6223 40.4445 29.5112C39.7334 31.4667 39.5556 33.6001 39.5556 35.8223C43.1111 35.6445 46.5778 35.4667 50.0445 35.1112H50.1334C50.2222 35.1112 50.2222 35.1112 50.3111 35.1112C52.5333 34.5779 53.5111 38.1334 51.2889 38.6667C47.4667 39.5556 43.6445 40.1779 39.8222 40.6223C39.8222 40.7112 39.8222 40.8001 39.8222 40.889C40.5334 47.8223 40 54.3112 39.4667 61.2445C39.2889 63.0223 37.1556 63.4667 36.2667 62.489C35.7334 62.2223 35.2889 61.689 35.2 60.889C35.1111 58.6667 35.0222 56.4445 34.9334 54.3112C34.4889 54.7556 34.0445 55.1112 33.6 55.5556C32.1778 56.7112 30.6667 57.8667 29.1556 59.0223C29.4222 58.6667 29.6889 58.4001 29.8667 58.1334ZM67.4667 56.3556C67.3778 56.2667 67.2889 56.089 67.2 56.0001C67.2889 55.6445 67.3778 55.289 67.2889 54.9334C67.3778 54.8445 67.3778 54.6667 67.4667 54.5779C67.4667 55.1112 67.4667 55.7334 67.4667 56.3556ZM32.8889 12.4445C33.1556 12.1779 33.4222 11.9112 33.5111 11.5556C33.9556 11.5556 34.4 11.5556 34.8445 11.5556C34.2222 11.8223 33.5111 12.089 32.8889 12.4445ZM52.3556 68.8001C52.4445 68.8001 52.4445 68.7112 52.5333 68.7112C52.6222 68.7112 52.6222 68.8001 52.7111 68.8001C52.5334 68.8001 52.4445 68.8001 52.3556 68.8001ZM55.9111 68.889C57.3334 68.6223 58.8445 68.5334 60.2667 68.5334C58.8445 68.8001 57.4222 68.889 55.9111 68.889Z" fill="white"/>
<path d="M30.8445 36.0891C32.0889 36.0891 33.4223 36.0891 34.6667 36.0891C34.6667 35.1113 34.6667 34.1335 34.6667 33.2446C34.0445 33.778 33.5111 34.2224 32.8889 34.7557C32.2667 35.1113 31.5556 35.5557 30.8445 36.0891Z" fill="white"/>
<path d="M35.2889 60.8C35.3778 61.6 35.8223 62.1333 36.3556 62.4C37.2445 63.3777 39.3778 62.9333 39.5556 61.1555C40.0889 54.2222 40.6223 47.7333 39.9111 40.8C39.9111 40.7111 39.9111 40.6222 39.9111 40.5333C43.7334 40.0889 47.5556 39.3777 51.3778 38.5777C53.6 38.0444 52.7111 34.5777 50.4 35.0222C50.3111 35.0222 50.3111 35.0222 50.2222 35.0222H50.1334C46.6667 35.3777 43.1111 35.5555 39.6445 35.7333C39.6445 33.6 39.8222 31.3777 40.5334 29.4222C42.3111 24.5333 48.6222 24.4444 52.8889 24.7111C54.5778 24.8 55.0222 22.8444 54.2222 21.7777C54.4 20.8 53.7778 19.6444 52.5334 19.6444C46.4 19.5555 36.3556 19.4666 35.1111 27.6444C34.8445 29.2444 34.7556 30.9333 34.7556 32.6222C34.7556 32.8 34.7556 32.8889 34.7556 33.0666C34.7556 34.0444 34.7556 34.9333 34.7556 35.9111C33.5111 35.9111 32.1778 35.9111 30.9334 35.9111H30.8445C30.1334 35.9111 29.4223 35.9111 28.6223 35.9111C27.4667 35.9111 26.9334 36.8 26.9334 37.7777C25.3334 38.4 25.5111 41.3333 27.5556 41.3333C29.9556 41.3333 32.4445 41.1555 34.8445 40.9777C34.8445 41.6 34.8445 42.3111 34.8445 42.9333C34.8445 46.5777 34.9334 50.2222 35.0223 53.8666C35.0223 53.9555 35.0223 54.0444 35.0223 54.1333C35.1111 56.4444 35.2 58.6666 35.2889 60.8Z" fill="#FF9FAA"/>
</svg>
