<svg width="80" height="80" viewBox="0 0 80 80" fill="none" xmlns="http://www.w3.org/2000/svg">
<path d="M71.9111 28.889C71.9111 22.2223 71.3778 14.1334 64.9778 10.2223C61.2445 8.00009 56.7111 8.08898 52.4445 8.00009C46.8445 7.73343 41.1556 7.73343 35.5556 7.82232C31.8222 7.91121 26.3111 7.37787 21.5111 8.26676C19.3778 8.08898 17.4222 8.26676 15.2889 8.62232C15.0222 8.7112 14.8445 8.71121 14.6667 8.88898C10.9334 10.0445 8.62225 14.4001 8.1778 18.5779C7.28891 28.2668 8.08891 38.4001 8.08891 48.089C8.08891 55.2001 7.11113 64.1779 13.2445 69.2445C15.5556 71.2001 18.3111 71.5557 21.2445 71.6445C26.3111 71.8223 31.4667 71.8223 36.5334 71.9112C44.8889 72.089 53.7778 73.0668 62.0445 71.6445C69.6889 70.3112 71.7334 65.5112 71.7334 58.3112C71.9111 48.5334 71.9111 38.7557 71.9111 28.889ZM12.6222 22.9334C12.6222 23.0223 12.6222 23.0223 12.6222 23.1112C12.4445 23.0223 12.2667 23.0223 12.0889 23.0223C12.0889 22.7556 12.0889 22.5779 12.1778 22.3112C12.3556 22.4001 12.6222 22.489 12.8889 22.489C12.7111 22.6668 12.6222 22.8445 12.6222 22.9334ZM60 12.8001C59.7334 12.889 59.5556 12.889 59.2889 12.9779C59.1111 12.8001 59.0222 12.7112 58.8445 12.6223C59.2 12.6223 59.5556 12.7112 60 12.8001ZM40.6222 11.9112C41.0667 11.9112 41.5111 11.9112 41.9556 11.9112C41.6889 12.0001 41.4222 12.1779 41.1556 12.2668L41.0667 12.1779C40.8889 12.089 40.8 12.0001 40.6222 11.9112C40.5334 11.9112 40.5334 11.9112 40.6222 11.9112ZM17.8667 36.1779C17.7778 36.2668 17.6889 36.3557 17.6 36.4445C17.5111 36.5334 17.3334 36.6223 17.2445 36.8001V36.7112C17.4222 36.4445 17.6 36.2668 17.8667 36.1779ZM16.5334 66.3112C16.9778 66.4001 17.3334 66.4001 17.7778 66.4001C17.8667 66.5779 17.9556 66.7557 18.0445 66.9334C17.5111 66.8445 17.0667 66.6668 16.5334 66.3112ZM41.6 68.0001C41.6889 68.0001 41.6889 67.9112 41.7778 67.9112C42.0445 67.9112 42.3111 67.9112 42.5778 67.8223C42.6667 67.9112 42.6667 68.0001 42.7556 68.089C42.3111 68.0001 41.9556 68.0001 41.6 68.0001ZM46.2222 68.1779C46.7556 67.9112 47.2889 67.5557 47.8222 67.289C48 67.289 48.1778 67.289 48.2667 67.2001C48.2667 67.5557 48.3556 67.9112 48.5334 68.2668C47.8222 68.2668 47.0222 68.2668 46.2222 68.1779ZM55.1111 68.4445C55.8222 68.1779 56.5334 67.9112 57.2445 67.5557C57.2445 67.8223 57.3334 68.089 57.4222 68.3557C56.7111 68.3557 55.9111 68.3557 55.1111 68.4445ZM61.4222 51.2001C61.1556 56.8001 58.3111 59.5557 52.8889 60.4445C45.2445 61.6001 36.7111 61.689 29.0667 60.4445C22.9334 59.3779 20.3556 56.4445 19.4667 50.3112C18.4889 43.3779 14.4889 18.7556 27.1111 19.8223C34.7556 18.6668 42.4889 18.7557 50.2222 19.2001C55.7334 19.5557 59.5556 21.3334 60.4445 27.0223C61.7778 34.7557 61.7778 43.3779 61.4222 51.2001ZM62.0445 58.7557C61.9556 58.7557 61.9556 58.7557 62.0445 58.7557C62.0445 58.6668 62.1334 58.5779 62.2222 58.5779C62.1334 58.6668 62.0445 58.6668 62.0445 58.7557ZM66.9334 20.089C66.9334 20.0001 67.0223 19.9112 67.0223 19.8223C67.0223 19.9112 67.1111 20.0001 67.1111 20.089C67.0222 20.1779 66.9334 20.1779 66.9334 20.089Z" fill="white"/>
<path d="M56.3556 26.9332C54.9334 22.0443 46.9334 23.0221 42.7556 22.9332C37.9556 22.8443 33.2445 22.9332 28.5334 23.6443C28.1778 23.8221 27.7334 23.911 27.2889 23.8221C27.0223 23.8221 26.8445 23.8221 26.5778 23.7332C21.4223 23.8221 22.6667 36.5332 22.7556 39.3777C22.9334 43.5555 22.3112 51.8221 25.4223 54.6666C28.7112 57.6888 35.9112 57.0666 40.0001 57.0666C44.3556 57.0666 49.3334 57.2443 53.5112 56.1777C59.0223 54.7555 57.3334 46.1332 57.2445 41.6888C57.1556 37.0666 57.6001 31.3777 56.3556 26.9332ZM42.5778 46.2221C38.4889 48.2666 33.5112 46.8443 31.2889 42.7554C29.0667 38.6666 30.9334 33.5999 35.0223 31.6443C35.3778 31.4666 35.6445 31.4666 35.9112 31.4666C39.0223 30.3999 43.0223 31.5555 44.8001 34.311C45.0667 34.2221 45.4223 34.1332 45.6889 34.0443C45.6889 34.0443 45.6889 34.0443 45.6001 34.1332C45.3334 34.311 45.1556 34.3999 44.8889 34.5777C47.2001 38.5777 46.9334 43.9999 42.5778 46.2221ZM51.6445 29.511C51.6445 30.6666 50.6667 31.4666 49.6001 31.5555C48.5334 31.6443 47.5556 30.5777 47.5556 29.511C47.5556 29.4221 47.5556 29.3332 47.5556 29.3332C47.5556 28.1777 48.5334 27.3777 49.6001 27.2888C50.6667 27.1999 51.6445 28.2666 51.6445 29.3332C51.6445 29.3332 51.6445 29.4221 51.6445 29.511Z" fill="white"/>
<path d="M39.5555 35.3777C38.9333 35.2888 37.4222 35.111 36.8889 35.5555C36.6222 35.8222 36.2666 35.911 36 35.9999C33.0666 38.5777 35.1111 43.911 39.5555 42.9333C42.4889 42.311 42.5778 39.6444 41.6889 37.2444C41.3333 36.1777 40.7111 35.5555 39.5555 35.3777Z" fill="white"/>
<path d="M50.3111 19.2002C42.5778 18.6669 34.8445 18.6668 27.2 19.8224C14.4889 18.6668 18.5778 43.2891 19.5556 50.3113C20.3556 56.4446 22.9334 59.4669 29.1556 60.4446C36.7111 61.6891 45.3334 61.6002 52.9778 60.4446C58.4889 59.6446 61.2445 56.8002 61.5111 51.2002C61.8667 43.378 61.8667 34.7557 60.5334 27.0224C59.5556 21.3335 55.7334 19.5557 50.3111 19.2002ZM53.5111 56.178C49.2445 57.2446 44.2667 57.0668 40 57.0668C35.9111 57.0668 28.6223 57.6891 25.4223 54.6669C22.3111 51.7335 22.8445 43.5557 22.7556 39.378C22.6667 36.5335 21.4223 23.8224 26.5778 23.7335C26.7556 23.8224 27.0223 23.8224 27.2889 23.8224C27.7334 23.9113 28.1778 23.8224 28.5334 23.6446C33.2445 22.9335 38.0445 22.8446 42.7556 22.9335C46.9334 23.0224 54.9334 21.9557 56.3556 26.9335C57.6 31.378 57.2445 37.0669 57.3334 41.6891C57.4223 46.1335 59.1111 54.7557 53.5111 56.178Z" fill="#FF9FAA"/>
<path d="M44.9778 34.5779C44.9778 34.489 44.8889 34.489 44.8889 34.4001C43.2 31.6446 39.1111 30.489 36 31.5557C35.7333 31.5557 35.3778 31.6446 35.1111 31.7334C31.0222 33.689 29.1556 38.7557 31.3778 42.8446C33.6 46.8446 38.5778 48.3557 42.6667 46.3112C46.9333 44.0001 47.2 38.5779 44.9778 34.5779ZM39.5556 42.9334C35.1111 43.9112 33.0667 38.5779 36 36.0001C36.2667 35.9112 36.6222 35.8223 36.8889 35.5557C37.4222 35.1112 38.9333 35.289 39.5556 35.3779C40.7111 35.5557 41.3333 36.1779 41.7778 37.2446C42.5778 39.6446 42.4889 42.3112 39.5556 42.9334Z" fill="#FF9FAA"/>
<path d="M49.6 27.2889C48.5333 27.3778 47.5555 28.1778 47.5555 29.3333C47.5555 29.4222 47.5555 29.5111 47.5555 29.5111C47.5555 30.5778 48.5333 31.6444 49.6 31.5556C50.6667 31.4667 51.6444 30.6667 51.6444 29.5111C51.6444 29.4222 51.6444 29.3333 51.6444 29.3333C51.6444 28.2667 50.7555 27.2 49.6 27.2889Z" fill="#FF9FAA"/>
</svg>
