<svg width="287" height="64" viewBox="0 0 287 64" fill="none" xmlns="http://www.w3.org/2000/svg">
<path d="M26.8078 38.6786L21.0498 35.087H10.0149L4.25686 38.6786C3.3146 41.0153 3.29486 43.5819 4.2288 45.9548L10.5319 52.3868C13.7045 53.744 17.3602 53.7449 20.5328 52.3868L26.8359 45.9548C27.7693 43.583 27.7505 41.0164 26.8078 38.6786Z" fill="#FF9FAA"/>
<path d="M31.0647 13.647C31.0647 11.0485 28.821 8.94116 26.0543 8.94116C23.544 8.94116 21.4657 10.6748 21.101 12.9365C19.4124 12.1854 17.5245 11.7647 15.5324 11.7647C13.5402 11.7647 11.6523 12.1854 9.96376 12.9365C9.599 10.6748 7.52067 8.94116 5.01044 8.94116C2.24367 8.94116 0 11.0485 0 13.647C0 15.9294 1.7296 17.8315 4.02539 18.2616C1.63871 22.4717 2.05528 27.7241 5.31207 31.5868L10.0149 35.087C13.4484 36.5973 17.5197 36.6397 21.0499 35.087L25.7526 31.5868C29.0084 27.7253 29.4266 22.4727 27.0393 18.2616C29.3351 17.8315 31.0647 15.9294 31.0647 13.647Z" fill="white"/>
<path d="M25.0522 39.0588C27.266 39.0588 29.0606 37.3733 29.0606 35.2941C29.0606 33.2149 27.266 31.5294 25.0522 31.5294C22.8385 31.5294 21.0439 33.2149 21.0439 35.2941C21.0439 37.3733 22.8385 39.0588 25.0522 39.0588Z" fill="white"/>
<path d="M25.0522 55.0588C27.8194 55.0588 30.0626 52.9519 30.0626 50.3529C30.0626 47.7539 27.8194 45.647 25.0522 45.647C22.285 45.647 20.0417 47.7539 20.0417 50.3529C20.0417 52.9519 22.285 55.0588 25.0522 55.0588Z" fill="white"/>
<path d="M11.023 50.3529C11.023 52.9362 8.79593 55.0588 6.01253 55.0588C3.24577 55.0588 1.00209 52.9515 1.00209 50.3529C1.00209 48.3444 2.34188 46.6296 4.22881 45.9548C7.48961 44.7862 11.023 47.0488 11.023 50.3529Z" fill="white"/>
<path d="M6.01253 39.0588C8.22628 39.0588 10.0209 37.3733 10.0209 35.2941C10.0209 33.2149 8.22628 31.5294 6.01253 31.5294C3.79878 31.5294 2.00418 33.2149 2.00418 35.2941C2.00418 37.3733 3.79878 39.0588 6.01253 39.0588Z" fill="white"/>
<path d="M11.1232 24.4706C11.7872 24.4706 12.3257 24.021 12.3257 23.4666V22.4627C12.3257 21.9084 11.7872 21.4588 11.1232 21.4588C10.4592 21.4588 9.92067 21.9084 9.92067 22.4627V23.4666C9.92067 24.021 10.4592 24.4706 11.1232 24.4706Z" fill="#FF9FAA"/>
<path d="M19.9415 24.4706C20.6056 24.4706 21.144 24.021 21.144 23.4666V22.4627C21.144 21.9084 20.6056 21.4588 19.9415 21.4588C19.2775 21.4588 18.739 21.9084 18.739 22.4627V23.4666C18.739 24.021 19.2775 24.4706 19.9415 24.4706Z" fill="#FF9FAA"/>
<path d="M13.2419 27.0306H14.6162V28.8376C14.6162 29.3366 15.0264 29.7412 15.5324 29.7412C16.0383 29.7412 16.4486 29.3366 16.4486 28.8376V27.0306H17.8229C18.3288 27.0306 18.739 26.626 18.739 26.127C18.739 25.6281 18.3288 25.2235 17.8229 25.2235H13.2419C12.736 25.2235 12.3257 25.6281 12.3257 26.127C12.3257 26.626 12.736 27.0306 13.2419 27.0306Z" fill="#FF9FAA"/>
<path d="M49.3303 49C47.221 49 45.3928 48.6016 43.846 47.8047C42.2991 46.9922 41.096 45.9062 40.2366 44.5469C39.3928 43.1875 38.971 41.6953 38.971 40.0703V25.8203C38.971 24.1797 39.3928 22.6875 40.2366 21.3438C41.096 19.9844 42.2991 18.9062 43.846 18.1094C45.3928 17.2969 47.221 16.8906 49.3303 16.8906H56.5491C58.6585 16.8906 60.4866 17.2969 62.0335 18.1094C63.596 18.9062 64.7991 19.9844 65.6428 21.3438C66.4866 22.6875 66.9085 24.1797 66.9085 25.8203V40.0703C66.9085 41.6953 66.4866 43.1875 65.6428 44.5469C64.7991 45.9062 63.596 46.9922 62.0335 47.8047C60.4866 48.6016 58.6585 49 56.5491 49H49.3303ZM50.6428 38.3828H56.7366L59.1272 38.1016L60.6272 36.625L60.9553 34.6094V31.0469L60.6272 29.0312L59.1272 27.5547L56.6897 27.2969H51.4397L50.01 27.0156L49.6819 25.6328V23.1719L50.01 21.7891L51.5569 21.4844H57.51L59.7132 21.9297L60.2757 19.375L57.5569 19H51.3928L49.0491 19.3281L47.5257 20.8281L47.221 22.7969V26.0078L47.5257 27.9766L49.0491 29.4531L51.3928 29.7578H56.6897L58.1194 29.9922L58.4475 31.2812V34.3516L58.1194 35.6641L56.596 35.8984H50.7835L48.4866 35.5234L47.9007 38.0547L50.6428 38.3828ZM75.8803 49C73.771 49 71.9428 48.6016 70.396 47.8047C68.8491 46.9922 67.646 45.9062 66.7866 44.5469C65.9428 43.1875 65.521 41.6953 65.521 40.0703V25.8203C65.521 24.1797 65.9428 22.6875 66.7866 21.3438C67.646 19.9844 68.8491 18.9062 70.396 18.1094C71.9428 17.2969 73.771 16.8906 75.8803 16.8906H83.0991C85.2085 16.8906 87.0366 17.2969 88.5835 18.1094C90.146 18.9062 91.3491 19.9844 92.1928 21.3438C93.0366 22.6875 93.4585 24.1797 93.4585 25.8203V40.0703C93.4585 41.6953 93.0366 43.1875 92.1928 44.5469C91.3491 45.9062 90.146 46.9922 88.5835 47.8047C87.0366 48.6016 85.2085 49 83.0991 49H75.8803ZM76.1381 38.3828H85.8178V35.8984H78.6225V19H76.1381V38.3828ZM102.43 49C100.321 49 98.4928 48.6016 96.946 47.8047C95.3991 46.9922 94.196 45.9062 93.3366 44.5469C92.4928 43.1875 92.071 41.6953 92.071 40.0703V25.8203C92.071 24.1797 92.4928 22.6875 93.3366 21.3438C94.196 19.9844 95.3991 18.9062 96.946 18.1094C98.4928 17.2969 100.321 16.8906 102.43 16.8906H109.649C111.758 16.8906 113.587 17.2969 115.133 18.1094C116.696 18.9062 117.899 19.9844 118.743 21.3438C119.587 22.6875 120.008 24.1797 120.008 25.8203V40.0703C120.008 41.6953 119.587 43.1875 118.743 44.5469C117.899 45.9062 116.696 46.9922 115.133 47.8047C113.587 48.6016 111.758 49 109.649 49H102.43ZM103.977 38.3828H110.258L112.673 38.1016L114.149 36.625L114.477 34.6094V22.7969L114.149 20.8281L112.673 19.3281L110.258 19H103.977L101.587 19.3281L100.087 20.8281L99.8053 22.7969V34.6094L100.087 36.625L101.633 38.1016L103.977 38.3828ZM104.118 35.8984L102.594 35.6641L102.243 34.2578V23.0312L102.477 21.7422L104.118 21.4844H110.118L111.758 21.7422L111.993 23.125V34.3516L111.665 35.6641L110.118 35.8984H104.118ZM128.98 49C126.871 49 125.043 48.6016 123.496 47.8047C121.949 46.9922 120.746 45.9062 119.887 44.5469C119.043 43.1875 118.621 41.6953 118.621 40.0703V25.8203C118.621 24.1797 119.043 22.6875 119.887 21.3438C120.746 19.9844 121.949 18.9062 123.496 18.1094C125.043 17.2969 126.871 16.8906 128.98 16.8906H136.199C138.308 16.8906 140.137 17.2969 141.683 18.1094C143.246 18.9062 144.449 19.9844 145.293 21.3438C146.137 22.6875 146.558 24.1797 146.558 25.8203V40.0703C146.558 41.6953 146.137 43.1875 145.293 44.5469C144.449 45.9062 143.246 46.9922 141.683 47.8047C140.137 48.6016 138.308 49 136.199 49H128.98ZM128.699 38.4766L130.246 38.1016L131.676 36.6719L133.223 26.3359L134.746 36.6719L136.199 38.1016L137.723 38.4766L139.269 38.1016L140.699 36.6719L142.574 19.4688L139.879 19L138.308 35.8047L137.676 35.9453L137.16 35.7578L134.371 19.7734H132.051L129.285 35.7578L128.746 35.9453L128.137 35.8047L126.543 19L123.848 19.4688L125.723 36.6719L127.176 38.1016L128.699 38.4766ZM161.08 49C158.971 49 157.143 48.6016 155.596 47.8047C154.049 46.9922 152.846 45.9062 151.987 44.5469C151.143 43.1875 150.721 41.6953 150.721 40.0703V25.8203C150.721 24.1797 151.143 22.6875 151.987 21.3438C152.846 19.9844 154.049 18.9062 155.596 18.1094C157.143 17.2969 158.971 16.8906 161.08 16.8906H168.299C170.408 16.8906 172.237 17.2969 173.783 18.1094C175.346 18.9062 176.549 19.9844 177.393 21.3438C178.237 22.6875 178.658 24.1797 178.658 25.8203V40.0703C178.658 41.6953 178.237 43.1875 177.393 44.5469C176.549 45.9062 175.346 46.9922 173.783 47.8047C172.237 48.6016 170.408 49 168.299 49H161.08ZM162.393 38.3828H168.487L170.877 38.1016L172.377 36.625L172.705 34.6094V31.0469L172.377 29.0312L170.877 27.5547L168.44 27.2969H163.19L161.76 27.0156L161.432 25.6328V23.1719L161.76 21.7891L163.307 21.4844H169.26L171.463 21.9297L172.026 19.375L169.307 19H163.143L160.799 19.3281L159.276 20.8281L158.971 22.7969V26.0078L159.276 27.9766L160.799 29.4531L163.143 29.7578H168.44L169.869 29.9922L170.198 31.2812V34.3516L169.869 35.6641L168.346 35.8984H162.533L160.237 35.5234L159.651 38.0547L162.393 38.3828ZM187.63 49C185.521 49 183.693 48.6016 182.146 47.8047C180.599 46.9922 179.396 45.9062 178.537 44.5469C177.693 43.1875 177.271 41.6953 177.271 40.0703V25.8203C177.271 24.1797 177.693 22.6875 178.537 21.3438C179.396 19.9844 180.599 18.9062 182.146 18.1094C183.693 17.2969 185.521 16.8906 187.63 16.8906H194.849C196.958 16.8906 198.787 17.2969 200.333 18.1094C201.896 18.9062 203.099 19.9844 203.943 21.3438C204.787 22.6875 205.208 24.1797 205.208 25.8203V40.0703C205.208 41.6953 204.787 43.1875 203.943 44.5469C203.099 45.9062 201.896 46.9922 200.333 47.8047C198.787 48.6016 196.958 49 194.849 49H187.63ZM189.037 38.3828H195.318L197.708 38.1016L199.208 36.625L199.537 34.6094V19H197.052V34.3516L196.701 35.6641L195.177 35.8984H189.177L187.63 35.6641L187.302 34.2578V19H184.865V34.6094L185.146 36.625L186.669 38.1016L189.037 38.3828ZM214.18 49C212.071 49 210.243 48.6016 208.696 47.8047C207.149 46.9922 205.946 45.9062 205.087 44.5469C204.243 43.1875 203.821 41.6953 203.821 40.0703V25.8203C203.821 24.1797 204.243 22.6875 205.087 21.3438C205.946 19.9844 207.149 18.9062 208.696 18.1094C210.243 17.2969 212.071 16.8906 214.18 16.8906H221.399C223.508 16.8906 225.337 17.2969 226.883 18.1094C228.446 18.9062 229.649 19.9844 230.493 21.3438C231.337 22.6875 231.758 24.1797 231.758 25.8203V40.0703C231.758 41.6953 231.337 43.1875 230.493 44.5469C229.649 45.9062 228.446 46.9922 226.883 47.8047C225.337 48.6016 223.508 49 221.399 49H214.18ZM216.149 38.3828H222.008L224.376 38.1016L225.899 36.625L226.227 34.6094V28.4453H219.43V30.9531H223.743V34.2578C223.665 34.5078 223.61 34.7422 223.579 34.9609C223.548 35.1797 223.493 35.4141 223.415 35.6641L221.868 35.8984H216.196L214.766 35.6641L214.438 34.1641V23.0781L214.673 21.7891L216.196 21.4375H222.29L224.704 21.8359L225.173 19.3281L222.454 19H216.149L213.758 19.375L212.258 20.875L211.93 22.8438V34.6094L212.258 36.625L213.805 38.1016L216.149 38.3828ZM240.73 49C238.621 49 236.793 48.6016 235.246 47.8047C233.699 46.9922 232.496 45.9062 231.637 44.5469C230.793 43.1875 230.371 41.6953 230.371 40.0703V25.8203C230.371 24.1797 230.793 22.6875 231.637 21.3438C232.496 19.9844 233.699 18.9062 235.246 18.1094C236.793 17.2969 238.621 16.8906 240.73 16.8906H247.949C250.058 16.8906 251.887 17.2969 253.433 18.1094C254.996 18.9062 256.199 19.9844 257.043 21.3438C257.887 22.6875 258.308 24.1797 258.308 25.8203V40.0703C258.308 41.6953 257.887 43.1875 257.043 44.5469C256.199 45.9062 254.996 46.9922 253.433 47.8047C251.887 48.6016 250.058 49 247.949 49H240.73ZM237.379 38.3828H240.168L240.777 31.2344H249.426L250.105 38.3828H252.777L250.926 20.9219L249.473 19.4688L246.355 19H243.848L240.73 19.4688L239.301 20.9219L237.379 38.3828ZM240.988 28.9844L241.691 21.8359L243.965 21.4844H246.262L248.465 21.8359L249.238 28.9844H240.988ZM267.28 49C265.171 49 263.343 48.6016 261.796 47.8047C260.249 46.9922 259.046 45.9062 258.187 44.5469C257.343 43.1875 256.921 41.6953 256.921 40.0703V25.8203C256.921 24.1797 257.343 22.6875 258.187 21.3438C259.046 19.9844 260.249 18.9062 261.796 18.1094C263.343 17.2969 265.171 16.8906 267.28 16.8906H274.499C276.608 16.8906 278.437 17.2969 279.983 18.1094C281.546 18.9062 282.749 19.9844 283.593 21.3438C284.437 22.6875 284.858 24.1797 284.858 25.8203V40.0703C284.858 41.6953 284.437 43.1875 283.593 44.5469C282.749 45.9062 281.546 46.9922 279.983 47.8047C278.437 48.6016 276.608 49 274.499 49H267.28ZM265.077 38.3828H267.585V30.5781H273.679L275.343 31.3281L275.694 32.5938V38.3828H278.179V32.3359L277.358 30.1797L274.687 29.2188L277.265 27.9766L277.991 25.8672V23.2656L277.71 21.2969L276.163 19.3281L273.819 19H265.077V38.3828ZM267.585 28.0703V21.4844H273.679L275.343 22.2109L275.507 23.5703V26.0547L275.155 27.3438L273.679 28.0703H267.585Z" fill="white"/>
</svg>
