<svg width="400" height="80" viewBox="0 0 400 80" fill="none" xmlns="http://www.w3.org/2000/svg">
<path d="M54.5098 48.1718L47.3123 43.6823H33.5186L26.3211 48.1718C25.1432 51.0927 25.1186 54.3009 26.286 57.2671L34.1649 65.3071C38.1307 67.0035 42.7002 67.0047 46.666 65.3071L54.5449 57.2671C55.7117 54.3023 55.6881 51.094 54.5098 48.1718Z" fill="#FF9FAA"/>
<path d="M59.8309 16.8824C59.8309 13.6341 57.0263 11 53.5678 11C50.4301 11 47.8321 13.1671 47.3762 15.9941C45.2656 15.0553 42.9056 14.5294 40.4154 14.5294C37.9253 14.5294 35.5653 15.0553 33.4547 15.9941C32.9987 13.1671 30.4008 11 27.263 11C23.8046 11 21 13.6341 21 16.8824C21 19.7353 23.162 22.1129 26.0317 22.6506C23.0484 27.9132 23.5691 34.4787 27.6401 39.3071L33.5186 43.6823C37.8105 45.5701 42.8996 45.6232 47.3123 43.6823L53.1908 39.3071C57.2605 34.4801 57.7833 27.9145 54.7992 22.6506C57.6689 22.1129 59.8309 19.7353 59.8309 16.8824Z" fill="white"/>
<path d="M52.3152 48.6471C55.0824 48.6471 57.3257 46.5402 57.3257 43.9412C57.3257 41.3422 55.0824 39.2353 52.3152 39.2353C49.5481 39.2353 47.3048 41.3422 47.3048 43.9412C47.3048 46.5402 49.5481 48.6471 52.3152 48.6471Z" fill="white"/>
<path d="M52.3152 68.6471C55.7742 68.6471 58.5783 66.0134 58.5783 62.7647C58.5783 59.516 55.7742 56.8824 52.3152 56.8824C48.8563 56.8824 46.0522 59.516 46.0522 62.7647C46.0522 66.0134 48.8563 68.6471 52.3152 68.6471Z" fill="white"/>
<path d="M34.7787 62.7647C34.7787 65.9938 31.9949 68.6471 28.5157 68.6471C25.0572 68.6471 22.2526 66.013 22.2526 62.7647C22.2526 60.2541 23.9273 58.1106 26.286 57.2671C30.362 55.8064 34.7787 58.6346 34.7787 62.7647Z" fill="white"/>
<path d="M28.5157 48.6471C31.2828 48.6471 33.5261 46.5402 33.5261 43.9412C33.5261 41.3422 31.2828 39.2353 28.5157 39.2353C25.7485 39.2353 23.5052 41.3422 23.5052 43.9412C23.5052 46.5402 25.7485 48.6471 28.5157 48.6471Z" fill="white"/>
<path d="M34.904 30.4118C35.734 30.4118 36.4071 29.8498 36.4071 29.1569V27.902C36.4071 27.209 35.734 26.6471 34.904 26.6471C34.0739 26.6471 33.4008 27.209 33.4008 27.902V29.1569C33.4008 29.8498 34.0739 30.4118 34.904 30.4118Z" fill="#FF9FAA"/>
<path d="M45.9269 30.4118C46.757 30.4118 47.4301 29.8498 47.4301 29.1569V27.902C47.4301 27.209 46.757 26.6471 45.9269 26.6471C45.0969 26.6471 44.4238 27.209 44.4238 27.902V29.1569C44.4238 29.8498 45.0969 30.4118 45.9269 30.4118Z" fill="#FF9FAA"/>
<path d="M37.5523 33.6118H39.2702V35.8706C39.2702 36.4942 39.7831 37 40.4155 37C41.0479 37 41.5607 36.4942 41.5607 35.8706V33.6118H43.2786C43.911 33.6118 44.4238 33.106 44.4238 32.4823C44.4238 31.8587 43.911 31.3529 43.2786 31.3529H37.5523C36.9199 31.3529 36.4071 31.8587 36.4071 32.4823C36.4071 33.106 36.9199 33.6118 37.5523 33.6118Z" fill="#FF9FAA"/>
<path d="M92.832 61C90.1953 61 87.9102 60.502 85.9766 59.5059C84.043 58.4902 82.5391 57.1328 81.4648 55.4336C80.4102 53.7344 79.8828 51.8691 79.8828 49.8379V32.0254C79.8828 29.9746 80.4102 28.1094 81.4648 26.4297C82.5391 24.7305 84.043 23.3828 85.9766 22.3867C87.9102 21.3711 90.1953 20.8633 92.832 20.8633H101.855C104.492 20.8633 106.777 21.3711 108.711 22.3867C110.664 23.3828 112.168 24.7305 113.223 26.4297C114.277 28.1094 114.805 29.9746 114.805 32.0254V49.8379C114.805 51.8691 114.277 53.7344 113.223 55.4336C112.168 57.1328 110.664 58.4902 108.711 59.5059C106.777 60.502 104.492 61 101.855 61H92.832ZM94.4727 47.7285H102.09L105.078 47.377L106.953 45.5312L107.363 43.0117V38.5586L106.953 36.0391L105.078 34.1934L102.031 33.8711H95.4688L93.6816 33.5195L93.2715 31.791V28.7148L93.6816 26.9863L95.6152 26.6055H103.057L105.811 27.1621L106.514 23.9688L103.115 23.5H95.4102L92.4805 23.9102L90.5762 25.7852L90.1953 28.2461V32.2598L90.5762 34.7207L92.4805 36.5664L95.4102 36.9473H102.031L103.818 37.2402L104.229 38.8516V42.6895L103.818 44.3301L101.914 44.623H94.6484L91.7773 44.1543L91.0449 47.3184L94.4727 47.7285ZM126.02 61C123.383 61 121.098 60.502 119.164 59.5059C117.23 58.4902 115.727 57.1328 114.652 55.4336C113.598 53.7344 113.07 51.8691 113.07 49.8379V32.0254C113.07 29.9746 113.598 28.1094 114.652 26.4297C115.727 24.7305 117.23 23.3828 119.164 22.3867C121.098 21.3711 123.383 20.8633 126.02 20.8633H135.043C137.68 20.8633 139.965 21.3711 141.898 22.3867C143.852 23.3828 145.355 24.7305 146.41 26.4297C147.465 28.1094 147.992 29.9746 147.992 32.0254V49.8379C147.992 51.8691 147.465 53.7344 146.41 55.4336C145.355 57.1328 143.852 58.4902 141.898 59.5059C139.965 60.502 137.68 61 135.043 61H126.02ZM126.342 47.7285H138.441V44.623H129.447V23.5H126.342V47.7285ZM159.207 61C156.57 61 154.285 60.502 152.352 59.5059C150.418 58.4902 148.914 57.1328 147.84 55.4336C146.785 53.7344 146.258 51.8691 146.258 49.8379V32.0254C146.258 29.9746 146.785 28.1094 147.84 26.4297C148.914 24.7305 150.418 23.3828 152.352 22.3867C154.285 21.3711 156.57 20.8633 159.207 20.8633H168.23C170.867 20.8633 173.152 21.3711 175.086 22.3867C177.039 23.3828 178.543 24.7305 179.598 26.4297C180.652 28.1094 181.18 29.9746 181.18 32.0254V49.8379C181.18 51.8691 180.652 53.7344 179.598 55.4336C178.543 57.1328 177.039 58.4902 175.086 59.5059C173.152 60.502 170.867 61 168.23 61H159.207ZM161.141 47.7285H168.992L172.01 47.377L173.855 45.5312L174.266 43.0117V28.2461L173.855 25.7852L172.01 23.9102L168.992 23.5H161.141L158.152 23.9102L156.277 25.7852L155.926 28.2461V43.0117L156.277 45.5312L158.211 47.377L161.141 47.7285ZM161.316 44.623L159.412 44.3301L158.973 42.5723V28.5391L159.266 26.9277L161.316 26.6055H168.816L170.867 26.9277L171.16 28.6562V42.6895L170.75 44.3301L168.816 44.623H161.316ZM192.395 61C189.758 61 187.473 60.502 185.539 59.5059C183.605 58.4902 182.102 57.1328 181.027 55.4336C179.973 53.7344 179.445 51.8691 179.445 49.8379V32.0254C179.445 29.9746 179.973 28.1094 181.027 26.4297C182.102 24.7305 183.605 23.3828 185.539 22.3867C187.473 21.3711 189.758 20.8633 192.395 20.8633H201.418C204.055 20.8633 206.34 21.3711 208.273 22.3867C210.227 23.3828 211.73 24.7305 212.785 26.4297C213.84 28.1094 214.367 29.9746 214.367 32.0254V49.8379C214.367 51.8691 213.84 53.7344 212.785 55.4336C211.73 57.1328 210.227 58.4902 208.273 59.5059C206.34 60.502 204.055 61 201.418 61H192.395ZM192.043 47.8457L193.977 47.377L195.764 45.5898L197.697 32.6699L199.602 45.5898L201.418 47.377L203.322 47.8457L205.256 47.377L207.043 45.5898L209.387 24.0859L206.018 23.5L204.055 44.5059L203.264 44.6816L202.619 44.4473L199.133 24.4668H196.232L192.775 44.4473L192.102 44.6816L191.34 44.5059L189.348 23.5L185.979 24.0859L188.322 45.5898L190.139 47.377L192.043 47.8457ZM232.52 61C229.883 61 227.598 60.502 225.664 59.5059C223.73 58.4902 222.227 57.1328 221.152 55.4336C220.098 53.7344 219.57 51.8691 219.57 49.8379V32.0254C219.57 29.9746 220.098 28.1094 221.152 26.4297C222.227 24.7305 223.73 23.3828 225.664 22.3867C227.598 21.3711 229.883 20.8633 232.52 20.8633H241.543C244.18 20.8633 246.465 21.3711 248.398 22.3867C250.352 23.3828 251.855 24.7305 252.91 26.4297C253.965 28.1094 254.492 29.9746 254.492 32.0254V49.8379C254.492 51.8691 253.965 53.7344 252.91 55.4336C251.855 57.1328 250.352 58.4902 248.398 59.5059C246.465 60.502 244.18 61 241.543 61H232.52ZM234.16 47.7285H241.777L244.766 47.377L246.641 45.5312L247.051 43.0117V38.5586L246.641 36.0391L244.766 34.1934L241.719 33.8711H235.156L233.369 33.5195L232.959 31.791V28.7148L233.369 26.9863L235.303 26.6055H242.744L245.498 27.1621L246.201 23.9688L242.803 23.5H235.098L232.168 23.9102L230.264 25.7852L229.883 28.2461V32.2598L230.264 34.7207L232.168 36.5664L235.098 36.9473H241.719L243.506 37.2402L243.916 38.8516V42.6895L243.506 44.3301L241.602 44.623H234.336L231.465 44.1543L230.732 47.3184L234.16 47.7285ZM265.707 61C263.07 61 260.785 60.502 258.852 59.5059C256.918 58.4902 255.414 57.1328 254.34 55.4336C253.285 53.7344 252.758 51.8691 252.758 49.8379V32.0254C252.758 29.9746 253.285 28.1094 254.34 26.4297C255.414 24.7305 256.918 23.3828 258.852 22.3867C260.785 21.3711 263.07 20.8633 265.707 20.8633H274.73C277.367 20.8633 279.652 21.3711 281.586 22.3867C283.539 23.3828 285.043 24.7305 286.098 26.4297C287.152 28.1094 287.68 29.9746 287.68 32.0254V49.8379C287.68 51.8691 287.152 53.7344 286.098 55.4336C285.043 57.1328 283.539 58.4902 281.586 59.5059C279.652 60.502 277.367 61 274.73 61H265.707ZM267.465 47.7285H275.316L278.305 47.377L280.18 45.5312L280.59 43.0117V23.5H277.484V42.6895L277.045 44.3301L275.141 44.623H267.641L265.707 44.3301L265.297 42.5723V23.5H262.25V43.0117L262.602 45.5312L264.506 47.377L267.465 47.7285ZM298.895 61C296.258 61 293.973 60.502 292.039 59.5059C290.105 58.4902 288.602 57.1328 287.527 55.4336C286.473 53.7344 285.945 51.8691 285.945 49.8379V32.0254C285.945 29.9746 286.473 28.1094 287.527 26.4297C288.602 24.7305 290.105 23.3828 292.039 22.3867C293.973 21.3711 296.258 20.8633 298.895 20.8633H307.918C310.555 20.8633 312.84 21.3711 314.773 22.3867C316.727 23.3828 318.23 24.7305 319.285 26.4297C320.34 28.1094 320.867 29.9746 320.867 32.0254V49.8379C320.867 51.8691 320.34 53.7344 319.285 55.4336C318.23 57.1328 316.727 58.4902 314.773 59.5059C312.84 60.502 310.555 61 307.918 61H298.895ZM301.355 47.7285H308.68L311.639 47.377L313.543 45.5312L313.953 43.0117V35.3066H305.457V38.4414H310.848V42.5723C310.75 42.8848 310.682 43.1777 310.643 43.4512C310.604 43.7246 310.535 44.0176 310.438 44.3301L308.504 44.623H301.414L299.627 44.3301L299.217 42.4551V28.5977L299.51 26.9863L301.414 26.5469H309.031L312.049 27.0449L312.635 23.9102L309.236 23.5H301.355L298.367 23.9688L296.492 25.8438L296.082 28.3047V43.0117L296.492 45.5312L298.426 47.377L301.355 47.7285ZM332.082 61C329.445 61 327.16 60.502 325.227 59.5059C323.293 58.4902 321.789 57.1328 320.715 55.4336C319.66 53.7344 319.133 51.8691 319.133 49.8379V32.0254C319.133 29.9746 319.66 28.1094 320.715 26.4297C321.789 24.7305 323.293 23.3828 325.227 22.3867C327.16 21.3711 329.445 20.8633 332.082 20.8633H341.105C343.742 20.8633 346.027 21.3711 347.961 22.3867C349.914 23.3828 351.418 24.7305 352.473 26.4297C353.527 28.1094 354.055 29.9746 354.055 32.0254V49.8379C354.055 51.8691 353.527 53.7344 352.473 55.4336C351.418 57.1328 349.914 58.4902 347.961 59.5059C346.027 60.502 343.742 61 341.105 61H332.082ZM327.893 47.7285H331.379L332.141 38.793H342.951L343.801 47.7285H347.141L344.826 25.9023L343.01 24.0859L339.113 23.5H335.979L332.082 24.0859L330.295 25.9023L327.893 47.7285ZM332.404 35.9805L333.283 27.0449L336.125 26.6055H338.996L341.75 27.0449L342.717 35.9805H332.404ZM365.27 61C362.633 61 360.348 60.502 358.414 59.5059C356.48 58.4902 354.977 57.1328 353.902 55.4336C352.848 53.7344 352.32 51.8691 352.32 49.8379V32.0254C352.32 29.9746 352.848 28.1094 353.902 26.4297C354.977 24.7305 356.48 23.3828 358.414 22.3867C360.348 21.3711 362.633 20.8633 365.27 20.8633H374.293C376.93 20.8633 379.215 21.3711 381.148 22.3867C383.102 23.3828 384.605 24.7305 385.66 26.4297C386.715 28.1094 387.242 29.9746 387.242 32.0254V49.8379C387.242 51.8691 386.715 53.7344 385.66 55.4336C384.605 57.1328 383.102 58.4902 381.148 59.5059C379.215 60.502 376.93 61 374.293 61H365.27ZM362.516 47.7285H365.65V37.9727H373.268L375.348 38.9102L375.787 40.4922V47.7285H378.893V40.1699L377.867 37.4746L374.527 36.2734L377.75 34.7207L378.658 32.084V28.832L378.307 26.3711L376.373 23.9102L373.443 23.5H362.516V47.7285ZM365.65 34.8379V26.6055H373.268L375.348 27.5137L375.553 29.2129V32.3184L375.113 33.9297L373.268 34.8379H365.65Z" fill="white"/>
</svg>
