<svg width="80" height="80" viewBox="0 0 80 80" fill="none" xmlns="http://www.w3.org/2000/svg">
<path d="M54.5098 48.1718L47.3123 43.6823H33.5186L26.3211 48.1718C25.1432 51.0927 25.1186 54.3009 26.286 57.2671L34.1649 65.3071C38.1307 67.0035 42.7002 67.0047 46.666 65.3071L54.5449 57.2671C55.7117 54.3023 55.6881 51.094 54.5098 48.1718Z" fill="#FF9FAA"/>
<path d="M59.8309 16.8824C59.8309 13.6341 57.0263 11 53.5679 11C50.4301 11 47.8322 13.1671 47.3762 15.9941C45.2656 15.0553 42.9056 14.5294 40.4154 14.5294C37.9253 14.5294 35.5653 15.0553 33.4547 15.9941C32.9987 13.1671 30.4008 11 27.263 11C23.8046 11 21 13.6341 21 16.8824C21 19.7353 23.162 22.1129 26.0317 22.6506C23.0484 27.9132 23.5691 34.4787 27.6401 39.3071L33.5186 43.6823C37.8105 45.5701 42.8996 45.6232 47.3123 43.6823L53.1908 39.3071C57.2605 34.4801 57.7833 27.9145 54.7992 22.6506C57.6689 22.1129 59.8309 19.7353 59.8309 16.8824Z" fill="white"/>
<path d="M52.3152 48.6471C55.0824 48.6471 57.3257 46.5402 57.3257 43.9412C57.3257 41.3422 55.0824 39.2353 52.3152 39.2353C49.5481 39.2353 47.3048 41.3422 47.3048 43.9412C47.3048 46.5402 49.5481 48.6471 52.3152 48.6471Z" fill="white"/>
<path d="M52.3152 68.6471C55.7742 68.6471 58.5783 66.0134 58.5783 62.7647C58.5783 59.516 55.7742 56.8824 52.3152 56.8824C48.8563 56.8824 46.0522 59.516 46.0522 62.7647C46.0522 66.0134 48.8563 68.6471 52.3152 68.6471Z" fill="white"/>
<path d="M34.7787 62.7647C34.7787 65.9938 31.9949 68.6471 28.5157 68.6471C25.0572 68.6471 22.2526 66.013 22.2526 62.7647C22.2526 60.2541 23.9273 58.1106 26.286 57.2671C30.362 55.8064 34.7787 58.6346 34.7787 62.7647Z" fill="white"/>
<path d="M28.5157 48.6471C31.2828 48.6471 33.5261 46.5402 33.5261 43.9412C33.5261 41.3422 31.2828 39.2353 28.5157 39.2353C25.7485 39.2353 23.5052 41.3422 23.5052 43.9412C23.5052 46.5402 25.7485 48.6471 28.5157 48.6471Z" fill="white"/>
<path d="M34.904 30.4118C35.734 30.4118 36.4071 29.8498 36.4071 29.1569V27.902C36.4071 27.209 35.734 26.6471 34.904 26.6471C34.0739 26.6471 33.4008 27.209 33.4008 27.902V29.1569C33.4008 29.8498 34.0739 30.4118 34.904 30.4118Z" fill="#FF9FAA"/>
<path d="M45.9269 30.4118C46.757 30.4118 47.4301 29.8498 47.4301 29.1569V27.902C47.4301 27.209 46.757 26.6471 45.9269 26.6471C45.0969 26.6471 44.4238 27.209 44.4238 27.902V29.1569C44.4238 29.8498 45.0969 30.4118 45.9269 30.4118Z" fill="#FF9FAA"/>
<path d="M37.5523 33.6118H39.2702V35.8706C39.2702 36.4942 39.7831 37 40.4155 37C41.0479 37 41.5607 36.4942 41.5607 35.8706V33.6118H43.2786C43.911 33.6118 44.4238 33.106 44.4238 32.4823C44.4238 31.8587 43.911 31.3529 43.2786 31.3529H37.5523C36.9199 31.3529 36.4071 31.8587 36.4071 32.4823C36.4071 33.106 36.9199 33.6118 37.5523 33.6118Z" fill="#FF9FAA"/>
</svg>
