<svg width="64" height="64" viewBox="0 0 64 64" fill="none" xmlns="http://www.w3.org/2000/svg">
<path d="M42.8078 38.7374L37.0498 35.1459H26.0148L20.2568 38.7374C19.3146 41.0742 19.2948 43.6407 20.2288 46.0136L26.5319 52.4456C29.7045 53.8028 33.3601 53.8038 36.5328 52.4456L42.8359 46.0136C43.7693 43.6419 43.7505 41.0752 42.8078 38.7374Z" fill="#FF9FAA"/>
<path d="M47.0647 13.7059C47.0647 11.1073 44.821 9 42.0543 9C39.544 9 37.4657 10.7336 37.101 12.9953C35.4124 12.2442 33.5245 11.8235 31.5324 11.8235C29.5402 11.8235 27.6523 12.2442 25.9638 12.9953C25.599 10.7336 23.5207 9 21.0104 9C18.2437 9 16 11.1073 16 13.7059C16 15.9882 17.7296 17.8904 20.0254 18.3205C17.6387 22.5305 18.0553 27.783 21.3121 31.6456L26.0149 35.1459C29.4484 36.6561 33.5197 36.6985 37.0499 35.1459L41.7526 31.6456C45.0084 27.7841 45.4266 22.5316 43.0393 18.3205C45.3351 17.8904 47.0647 15.9882 47.0647 13.7059Z" fill="white"/>
<path d="M41.0522 39.1177C43.266 39.1177 45.0606 37.4322 45.0606 35.353C45.0606 33.2738 43.266 31.5883 41.0522 31.5883C38.8385 31.5883 37.0439 33.2738 37.0439 35.353C37.0439 37.4322 38.8385 39.1177 41.0522 39.1177Z" fill="white"/>
<path d="M41.0522 55.1176C43.8194 55.1176 46.0626 53.0107 46.0626 50.4118C46.0626 47.8128 43.8194 45.7059 41.0522 45.7059C38.285 45.7059 36.0417 47.8128 36.0417 50.4118C36.0417 53.0107 38.285 55.1176 41.0522 55.1176Z" fill="white"/>
<path d="M27.023 50.4117C27.023 52.995 24.7959 55.1176 22.0125 55.1176C19.2457 55.1176 17.0021 53.0103 17.0021 50.4117C17.0021 48.4033 18.3419 46.6885 20.2288 46.0136C23.4896 44.8451 27.023 47.1077 27.023 50.4117Z" fill="white"/>
<path d="M22.0125 39.1177C24.2263 39.1177 26.0209 37.4322 26.0209 35.353C26.0209 33.2738 24.2263 31.5883 22.0125 31.5883C19.7988 31.5883 18.0042 33.2738 18.0042 35.353C18.0042 37.4322 19.7988 39.1177 22.0125 39.1177Z" fill="white"/>
<path d="M27.1232 24.5294C27.7872 24.5294 28.3257 24.0798 28.3257 23.5255V22.5216C28.3257 21.9672 27.7872 21.5176 27.1232 21.5176C26.4592 21.5176 25.9207 21.9672 25.9207 22.5216V23.5255C25.9207 24.0798 26.4592 24.5294 27.1232 24.5294Z" fill="#FF9FAA"/>
<path d="M35.9415 24.5294C36.6056 24.5294 37.1441 24.0798 37.1441 23.5255V22.5216C37.1441 21.9672 36.6056 21.5176 35.9415 21.5176C35.2775 21.5176 34.739 21.9672 34.739 22.5216V23.5255C34.739 24.0798 35.2775 24.5294 35.9415 24.5294Z" fill="#FF9FAA"/>
<path d="M29.2419 27.0894H30.6162V28.8965C30.6162 29.3954 31.0264 29.8 31.5324 29.8C32.0383 29.8 32.4486 29.3954 32.4486 28.8965V27.0894H33.8229C34.3288 27.0894 34.739 26.6848 34.739 26.1859C34.739 25.6869 34.3288 25.2823 33.8229 25.2823H29.2419C28.736 25.2823 28.3257 25.6869 28.3257 26.1859C28.3257 26.6848 28.736 27.0894 29.2419 27.0894Z" fill="#FF9FAA"/>
</svg>
