<svg width="80" height="80" viewBox="0 0 80 80" fill="none" xmlns="http://www.w3.org/2000/svg">
<path d="M72.4445 24.8889C72.0889 17.6 71.7334 10.3111 63.6445 8.17776C59.0223 6.93332 54.0445 7.28887 49.4223 7.28887C43.7334 7.28887 38.0445 7.28887 32.4445 7.28887C28.8889 7.28887 24.5334 6.66665 20.9778 7.82221H20.8889C13.2445 7.46665 10.4 14.8444 9.15559 21.1555C8.35559 25.6 7.55559 30.1333 7.4667 34.6667C7.37781 39.8222 8.97781 44.7111 9.24448 49.7778C9.68892 56.7111 7.55559 64.1778 13.7778 69.2444C20.4445 74.5778 30.5778 72.8 38.4 72.6222C43.2889 72.5333 48.1778 72.3555 53.0667 72.2667C57.0667 72.1778 61.8667 72.6222 65.4223 70.4C71.3778 66.6667 71.5556 58.7555 71.0223 52.5333C70.2223 43.1111 72.8889 34.2222 72.4445 24.8889ZM35.2889 54.0444C33.5111 55.2 31.0223 55.4667 29.4223 53.6889C27.4667 51.4667 28.2667 46.4889 28.0889 43.8222C27.8223 38.7555 28.0889 33.3333 26.5778 28.4444C26.4889 28.0889 26.4889 27.8222 26.4889 27.5555C26.4 27.2889 26.4 27.0222 26.4 26.7555C26.5778 24.8 28.1778 24.3555 29.8667 24.3555C30.2223 24.3555 30.6667 24.3555 31.1111 24.4444C31.2889 24.4444 31.3778 24.5333 31.5556 24.6222C31.9111 24.6222 32.2667 24.7111 32.5334 24.8889C36.8 27.2889 41.3334 28.7111 45.6 30.5778C45.6889 30.4889 45.7778 30.4889 45.8667 30.4C45.7778 30.4889 45.6889 30.5778 45.6889 30.5778C49.3334 32.1778 52.7111 34.2222 55.5556 37.4222C59.2889 41.6 55.4667 43.4667 51.4667 44.8C49.0667 46.0444 46.6667 47.2 44.2667 48.4444C43.1111 49.0667 41.8667 49.6 40.6223 50.1333C38.8445 51.4667 37.1556 52.8889 35.2889 54.0444ZM12.9778 46.0444C13.1556 46.1333 13.4223 46.1333 13.6 46.1333C13.4223 46.3111 13.2445 46.4889 13.0667 46.6667C13.0667 46.4889 12.9778 46.2222 12.9778 46.0444ZM31.2889 17.7778C31.3778 17.6889 31.4667 17.6889 31.5556 17.6C31.3778 17.7778 31.2 18.0444 31.0223 18.2222C30.7556 18.3111 30.5778 18.4889 30.3111 18.5778C30.3111 18.5778 30.3111 18.5778 30.4 18.4889C30.7556 18.3111 31.0223 18.0444 31.2889 17.7778ZM66.6667 48.2666C66.4 48.3555 66.2223 48.3555 65.9556 48.4444C66.1334 48.1778 66.4 47.9111 66.6667 47.7333C66.6667 47.9111 66.6667 48.0889 66.6667 48.2666ZM12.7111 41.6889C12.7111 41.7778 12.8 41.8666 12.8 42.0444V42.1333C12.7111 42.2222 12.5334 42.3111 12.4445 42.4C12.3556 42.4 12.3556 42.4889 12.2667 42.4889C12.2667 42.3111 12.1778 42.2222 12.1778 42.0444C12.3556 41.8666 12.5334 41.7778 12.7111 41.6889ZM68.3556 20.5333C68.2667 20.3555 68.2667 20.1778 68.2667 19.9111C68.2667 19.9111 68.2667 19.8222 68.3556 19.8222C68.2667 20.0889 68.3556 20.3555 68.3556 20.5333ZM56.8 11.5555C56.8 11.4667 56.8 11.3778 56.8 11.2889C57.1556 11.2889 57.5111 11.2889 57.7778 11.2889C57.4223 11.3778 57.0667 11.4667 56.8 11.5555ZM40.8 11.4667C40.7111 11.4667 40.6223 11.3778 40.6223 11.3778C40.8889 11.3778 41.0667 11.3778 41.3334 11.3778C41.1556 11.3778 40.9778 11.4667 40.8 11.4667ZM12.8 24.9778C12.7111 25.0667 12.6223 25.1555 12.5334 25.2444C12.5334 25.1555 12.5334 25.0667 12.6223 24.9778C12.7111 24.8889 12.8 24.9778 12.8 24.9778ZM47.3778 68C47.5556 68 47.7334 68 47.9111 68V68.0889C47.6445 68.0889 47.4667 68.0889 47.2 68.0889C47.2889 68.0889 47.3778 68.0889 47.3778 68ZM58.0445 67.8222C58.2223 67.9111 58.4 67.9111 58.5778 68C58.3111 68 58.0445 68 57.7778 68.0889C57.8667 67.9111 57.9556 67.9111 58.0445 67.8222ZM64.1778 12.4444C64.0889 12.4444 64 12.5333 63.9111 12.5333C63.6445 12.3555 63.2889 12.2667 63.0223 12.1778C63.0223 12.0889 62.9334 12.0889 62.9334 12C63.3778 12.1778 63.8223 12.2667 64.1778 12.4444ZM52.7111 68.0889C52.7111 68 52.7111 68 52.7111 68.0889C53.3334 68 53.7778 67.8222 54.3111 67.5555C54.4 67.7333 54.4889 67.9111 54.5778 68.0889C53.9556 68.0889 53.3334 68 52.7111 68.0889Z" fill="white"/>
<path d="M48.2667 36.5337C48.5334 36.8004 48.8001 36.9781 49.0667 37.2448C49.1556 37.2448 49.1556 37.2448 49.2445 37.2448C48.8889 37.067 48.6223 36.8004 48.2667 36.5337Z" fill="white"/>
<path d="M44.2667 48.4444C46.6667 47.1999 49.0667 46.0444 51.4667 44.7999C55.5556 43.4666 59.3778 41.5999 55.5556 37.4221C52.7111 34.2221 49.2445 32.1777 45.6889 30.5777C45.6889 30.5777 45.6889 30.5777 45.6 30.5777C41.3334 28.6221 36.8 27.1999 32.5334 24.8888C32.2667 24.711 31.9111 24.6221 31.5556 24.6221C31.4667 24.5332 31.2889 24.5332 31.1111 24.4444C30.6667 24.3555 30.3111 24.3555 29.8667 24.3555C28.2667 24.3555 26.5778 24.7999 26.4 26.7555C26.4 27.0221 26.4 27.2888 26.4889 27.5555C26.4889 27.8221 26.4889 28.0888 26.5778 28.4444C28.1778 33.2444 27.8222 38.7555 28.0889 43.8221C28.2667 46.4888 27.4667 51.4666 29.4222 53.6888C30.9334 55.4666 33.4222 55.111 35.2889 54.0444C37.1556 52.8888 38.8445 51.5555 40.6222 50.2221C41.8667 49.5999 43.1111 49.0666 44.2667 48.4444ZM49.2445 37.2444C49.1556 37.2444 49.1556 37.2444 49.0667 37.2444C48.8 36.9777 48.5334 36.7999 48.2667 36.5332C48.6222 36.7999 48.8889 37.0666 49.2445 37.2444Z" fill="#FF9FAA"/>
</svg>
